<svg xmlns="http://www.w3.org/2000/svg" height="800" width="1200" viewBox="-37.20015 -28.813 322.4013 172.878"><path fill="#011f5b" d="M.07 0v2.667c7.527 0 10.192 3.293 10.192 14.27v56.298c0 11.918-3.92 13.957-10.193 13.957v2.668h32.305v-2.668c-7.528 0-10.193-3.136-10.193-14.27V47.83c6.587.783 9.879.941 13.8.941 20.387 0 31.68-8.31 31.68-23.209C67.66 13.173 57.623 0 32.845 0H.071zm22.11 3.452h11.135c16.466 0 21.8 12.858 21.8 22.424 0 12.232-8.47 19.447-21.8 19.447-4.705 0-7.058-.158-11.135-1.569V3.451zm64.297 29.324c-15.68 0-27.914 13.174-27.914 29.953 0 16.78 12.545 28.855 29.953 28.855 9.723 0 16.153-3.292 22.896-11.918v-4.08c-7.999 8.94-11.918 11.605-19.604 11.605-7.527 0-22.425-6.27-22.113-31.205h40.775c.785-12.86-11.134-23.211-23.994-23.211zm42.652 0l-17.25 1.726v2.666c7.527 0 9.256 1.412 9.256 8.155V76.53c0 10.035-1.885 10.662-9.256 10.662v2.668h29.326v-2.668c-8.312 0-9.408-2.195-9.408-10.662V49.399c5.488-7.371 10.35-10.82 15.838-10.82 5.958 0 12.389 3.764 12.389 12.703v29.012c0 5.175-2.04 6.898-9.566 6.898v2.668h58.65v-2.668c-8.31 0-9.41-2.195-9.41-10.662V49.4c5.49-7.372 10.349-10.82 15.84-10.82 5.958 0 12.389 3.764 12.389 12.702v29.012c0 5.175-2.037 6.898-9.565 6.898v2.668h29.64v-2.668c-7.842 0-9.41-2.193-9.41-9.408V52.692c0-13.33-9.568-19.916-18.82-19.916-7.056 0-13.486 3.607-20.073 11.135V32.776h-2.664l-17.252 1.727v2.666c7.529 0 9.254 1.411 9.254 8.154V76.53c0 9.956-1.87 10.65-9.096 10.66-7.697-.03-9.252-2.242-9.252-9.406V52.692c0-13.33-9.565-19.916-18.818-19.916-7.055 0-13.486 3.607-20.072 11.135V32.776h-2.668zm-44.064 3.293c7.058 0 15.368 5.018 14.896 17.25H69.695c.628-10.35 6.119-17.25 15.37-17.25zm35.275 61.678c-.747 0-3.878.391-4.82 4.181h-1.674l-.158.748h1.69l-2.546 12.576h.801c1.013-2.704 2.437-8.344 3.309-12.576h2.33l.426-.375.072-.373h-2.613l.193-.855c.429-1.92 1.228-2.65 2.295-2.65.747 0 1.316.553 1.564 1.033l.446-.215.216-1.174c-.268-.249-1.123-.32-1.53-.32zM0 98.37v.463c1.602.196 1.53.106 1.53 1.761v5.303c0 3.218 1.174 5.14 4.964 5.14 2.295 0 4.733-1.425 4.733-5.25v-5.015c0-.373.07-.675.105-.96.089-.642.675-.892 1.53-.98v-.462H8.663v.463c.836.087 1.44.337 1.53.978.035.286.107.588.107.961v4.944c0 2.847-1.282 4.484-3.719 4.484-2.651 0-3.326-1.905-3.326-4.395v-5.21c0-1.656-.072-1.566 1.53-1.762v-.463H0zm127.29 0v.463c1.602.196 1.531.106 1.531 1.761v8.006c0 1.653.07 1.566-1.53 1.762v.461h4.784v-.461c-1.6-.196-1.529-.11-1.529-1.762v-9.662h1.084c1.995 0 2.953.926 2.953 2.92 0 1.957-1.03 3.289-3.256 3.254v.355c2.723.162 5.036-1.226 5.036-3.787 0-2.137-1.46-3.31-4.413-3.31h-4.66zm-59.87 2.68c-1.58 0-2.952.974-2.952 2.209 0 1.496.92 2.032 1.662 2.527 2.06 1.359 2.537 2.086 2.537 2.978 0 1.002-.794 1.743-1.77 1.743-1.057 0-2.058-.603-2.208-2.125h-.36v1.974c0 .109.044.164.1.194a6.415 6.415 0 002.346.437c1.649 0 3.322-.906 3.322-2.537 0-1.141-.468-1.84-1.922-2.924-1.374-1.03-2.334-1.609-2.334-2.57 0-1.015.712-1.426 1.51-1.426 1.097 0 1.62.77 1.73 1.729h.356v-1.8c0-.068-.013-.12-.096-.15-.548-.19-1.332-.26-1.922-.26zm109.04 0c-1.58 0-2.95.974-2.95 2.209 0 1.496.918 2.032 1.66 2.527 2.061 1.359 2.54 2.086 2.54 2.978 0 1.002-.797 1.743-1.77 1.743-1.058 0-2.059-.603-2.21-2.125h-.359v1.974c0 .109.043.164.096.194.716.272 1.47.437 2.35.437 1.647 0 3.32-.906 3.32-2.537 0-1.141-.465-1.84-1.922-2.924-1.372-1.03-2.334-1.609-2.334-2.57 0-1.015.715-1.426 1.51-1.426 1.098 0 1.622.77 1.73 1.729h.358v-1.8c0-.068-.013-.12-.096-.15-.548-.19-1.332-.26-1.924-.26zm37.42 0c-1.14 3.032-2.743 7.52-3.335 8.728-.22.453-.616.688-.986.688v.357h2.496v-.357c-.603 0-.866-.454-.686-.989l.63-1.838h3.501l.592 1.77c.22.604.138 1.056-.728 1.056v.358h3.199v-.358c-.59 0-.811-.438-1.113-1.209-.467-1.22-1.868-5.447-2.8-8.207h-.77zm29.362 0c-1.137 3.032-2.746 7.52-3.336 8.728-.22.453-.618.688-.988.688v.357h2.5v-.357c-.606 0-.865-.454-.687-.989l.632-1.838h3.502l.586 1.77c.22.604.14 1.056-.724 1.056v.358h3.197v-.358c-.591 0-.809-.438-1.111-1.209-.468-1.22-1.867-5.447-2.801-8.207h-.77zm-229.16.164v.357c.783 0 1.21.44 1.594.932v6.468c0 .287-.056.519-.084.739-.068.495-.52.69-1.18.756v.357h3.364v-.357c-.906-.067-1.373-.26-1.442-.756-.027-.22-.082-.452-.082-.739v-6.068c2.238 2.635 4.502 5.34 6.684 7.92h.467v-7.756c0-.289.056-.52.084-.74.067-.495.534-.687 1.18-.756v-.357h-3.364v.357c.906.069 1.372.26 1.441.756.028.22.082.451.082.74v5.643H22.8c-2.045-2.485-4.173-5.012-6.219-7.496h-2.498zm13.385 0v.357c1.235.15 1.18.083 1.18 1.36v6.175c0 1.277.056 1.209-1.18 1.36v.357h3.694v-.357c-1.236-.151-1.182-.083-1.182-1.36v-6.176c0-1.276-.054-1.208 1.182-1.359v-.357zm5.807 0v.357c.659 0 1.084.427 1.592 1.895.836 2.333 1.77 4.984 2.607 7.357h.701c1.153-2.813 2.319-5.615 3.473-8.428.287-.686.74-.824 1.139-.824v-.357H39.82v.357c.933 0 1.29.427.947 1.291-.852 2.1-1.688 4.212-2.566 6.312a710.647 710.647 0 01-2.047-6.066c-.453-1.316.097-1.537.851-1.537v-.357h-3.732zm11.627 0v.357c1.235.15 1.18.083 1.18 1.36v6.175c0 1.277.055 1.209-1.18 1.36v.357h6.752l.412-2.47h-.356c-.63 1.47-.536 2.03-2.525 2.03-1.235 0-1.771-.096-1.771-1.261v-3.104h1.152c.92 0 1.236.482 1.264 1.29h.355v-2.924h-.355c-.028.852-.399 1.195-1.264 1.195h-1.152v-3.926h1.867c.988 0 1.263.755 1.4 1.772h.356v-2.211H44.9zm9.265 0v.357c1.236.15 1.18.083 1.18 1.36v6.175c0 1.277.056 1.209-1.18 1.36v.357h3.692v-.357c-1.236-.151-1.18-.083-1.18-1.36v-2.539h1.29c1.66 2.76 2.1 4.256 2.911 4.256h1.414v-.178c-.48-.288-1.249-1.25-1.935-2.252l-1.346-2.045c1.057-.413 1.922-1.386 1.922-2.8 0-1.605-1.387-2.334-2.773-2.334h-3.994zm18.408 0v.357c1.237.15 1.18.083 1.18 1.36v6.175c0 1.277.057 1.209-1.18 1.36v.357h3.692v-.357c-1.234-.151-1.178-.083-1.178-1.36v-6.176c0-1.276-.056-1.208 1.178-1.359v-.357zm6.012 0l-.371 2.1h.344c.453-.906.729-1.661 1.924-1.661h1.232v7.453c0 1.277.057 1.208-1.18 1.36v.357h3.696v-.358c-1.237-.15-1.182-.082-1.182-1.359v-7.453h1.234c1.195 0 1.47.754 1.922 1.66h.344l-.371-2.1h-7.592zm9.557 0v.357c.63 0 1.014.342 1.467 1.234l2.115 4.188v2.113c0 1.277.052 1.209-1.182 1.36v.357h3.694v-.357c-1.234-.151-1.182-.083-1.182-1.36v-1.535c0-.344.028-.729.166-1.004l2.29-4.158c.372-.66.742-.838 1.126-.838v-.357h-2.828v.357c.81 0 1.25.398.783 1.234l-1.893 3.446-1.664-3.446c-.341-.712-.436-1.234.606-1.234v-.357h-3.498zm50.68 0v.357c1.236.15 1.181.083 1.181 1.36v6.175c0 1.277.055 1.209-1.181 1.36v.357h6.754l.412-2.47h-.358c-.63 1.47-.533 2.03-2.525 2.03-1.234 0-1.77-.096-1.77-1.261v-3.104h1.153c.92 0 1.236.482 1.262 1.29h.357v-2.924h-.357c-.026.852-.397 1.195-1.262 1.195h-1.153v-3.926h1.868c.988 0 1.26.755 1.396 1.772h.36v-2.211h-6.137zm9.21 0v.357c.784 0 1.209.44 1.592.932v6.468c0 .287-.053.519-.082.739-.069.495-.521.69-1.177.756v.357h3.36v-.357c-.907-.067-1.371-.26-1.44-.756-.027-.22-.084-.452-.084-.739v-6.068c2.238 2.635 4.503 5.34 6.685 7.92h.467v-7.756c0-.289.056-.52.084-.74.066-.495.535-.687 1.178-.756v-.357h-3.362v.357c.909.069 1.374.26 1.442.756.027.22.084.451.084.74v5.643h-.031c-2.044-2.485-4.172-5.012-6.22-7.496h-2.495zm12.3 0v.357c.783 0 1.208.44 1.591.932v6.468c0 .287-.052.519-.082.739-.069.495-.521.69-1.177.756v.357h3.361v-.357c-.906-.067-1.372-.26-1.441-.756-.026-.22-.082-.452-.082-.739v-6.068c2.237 2.635 4.501 5.34 6.683 7.92h.467v-7.756c0-.289.055-.52.084-.74.066-.495.536-.687 1.18-.756v-.357h-3.364v.357c.909.069 1.375.26 1.444.756.026.22.082.451.082.74v5.643h-.03c-2.044-2.485-4.17-5.012-6.218-7.496h-2.498zm20.922 0v.357c.632 0 1.015.342 1.468 1.234l2.114 4.188v2.113c0 1.277.055 1.209-1.182 1.36v.357h3.694v-.357c-1.234-.151-1.18-.083-1.18-1.36v-1.535c0-.344.026-.729.164-1.004l2.293-4.158c.369-.66.74-.838 1.127-.838v-.357h-2.83v.357c.81 0 1.247.398.781 1.234l-1.893 3.446-1.66-3.446c-.344-.712-.44-1.234.604-1.234v-.357h-3.5zm10.746 0v.357c1.238.15 1.181.083 1.181 1.36v6.175c0 1.277.057 1.209-1.181 1.36v.357h6.74l.414-2.47h-.346c-.63 1.47-.547 2.03-2.539 2.03-1.22 0-1.756-.095-1.756-1.056v-6.397c0-1.276-.055-1.208 1.182-1.359v-.357H192zm8.21 0v.357c.66 0 1.084.427 1.592 1.895a1532.91 1532.91 0 012.61 7.357h.697c1.155-2.813 2.32-5.615 3.475-8.428.286-.686.743-.824 1.14-.824v-.357h-2.967v.357c.937 0 1.292.427.948 1.291-.85 2.1-1.69 4.212-2.567 6.312a754.29 754.29 0 01-2.047-6.066c-.453-1.316.099-1.537.854-1.537v-.357h-3.735zm20.07 0v.357c.782 0 1.209.44 1.592.932v6.468c0 .287-.056.519-.084.739-.069.495-.52.69-1.18.756v.357h3.364v-.357c-.906-.067-1.372-.26-1.441-.756-.029-.22-.082-.452-.082-.739v-6.068c2.234 2.635 4.503 5.34 6.685 7.92h.465v-7.756c0-.289.057-.52.084-.74.068-.495.533-.687 1.18-.756v-.357H227.5v.357c.906.069 1.373.26 1.442.756.028.22.082.451.082.74v5.643h-.028c-2.044-2.485-4.171-5.012-6.216-7.496h-2.498zm12.835 0v.357c1.234.15 1.181.083 1.181 1.36v6.175c0 1.277.052 1.209-1.181 1.36v.357h3.69v-.357c-1.233-.151-1.18-.083-1.18-1.36v-6.176c0-1.276-.053-1.208 1.18-1.359v-.357zm-176.44.439h1.056c1.002 0 1.826.523 1.826 2.02 0 1.552-.55 2.457-1.744 2.457h-1.138v-4.477zm51.19.063c-2.97 0-4.98 3.487-4.98 5.818 0 1.671.622 3.504 2.898 3.504 3.399 0 4.963-4.164 4.963-6.121 0-1.6-.512-3.201-2.88-3.201zm-.158.425c.284 0 1.403.07 1.403 1.922 0 3.094-1.081 6.44-3.11 6.44-1.316 0-1.478-1.672-1.478-2.596 0-2.315 1.263-5.766 3.185-5.766zm106.13.514h.026l1.459 4.463h-3.117zm29.361 0h.03l1.453 4.463h-3.115z"/></svg>