<svg width="32" height="32" viewBox="0 0 32 32" fill="none" xmlns="http://www.w3.org/2000/svg">
  <rect width="32" height="32" rx="8" fill="#0F172A"/>
  <path d="M16 6C12.5 6 9.5 8.5 9.5 12C9.5 13.5 10 15 11 16C10 17 9.5 18.5 9.5 20C9.5 23.5 12.5 26 16 26C19.5 26 22.5 23.5 22.5 20C22.5 18.5 22 17 21 16C22 15 22.5 13.5 22.5 12C22.5 8.5 19.5 6 16 6Z" fill="#3B82F6"/>
  <path d="M16 8C13.5 8 11.5 10 11.5 12.5C11.5 13.5 12 14.5 12.5 15.5C12 16.5 11.5 17.5 11.5 18.5C11.5 21 13.5 23 16 23C18.5 23 20.5 21 20.5 18.5C20.5 17.5 20 16.5 19.5 15.5C20 14.5 20.5 13.5 20.5 12.5C20.5 10 18.5 8 16 8Z" fill="#60A5FA"/>
  <path d="M16 10C14.5 10 13.5 11 13.5 12.5C13.5 13 13.8 13.5 14 14C13.8 14.5 13.5 15 13.5 15.5C13.5 17 14.5 18 16 18C17.5 18 18.5 17 18.5 15.5C18.5 15 18.2 14.5 18 14C18.2 13.5 18.5 13 18.5 12.5C18.5 11 17.5 10 16 10Z" fill="#93C5FD"/>
  <path d="M16 2V30" stroke="#E2E8F0" stroke-width="1" opacity="0.3"/>
</svg>





